<svg xmlns="http://www.w3.org/2000/svg" viewBox="0 0 900 560" width="900" height="560" role="img" aria-label="IoT / CONNECTED SENSOR NETWORK">
<defs><pattern id="g" width="30" height="30" patternUnits="userSpaceOnUse">
<path d="M30 0H0V30" fill="none" stroke="#7AA6FF" stroke-width=".6" opacity=".10"/></pattern></defs>
<rect width="900" height="560" fill="#0A1A33"/><rect width="900" height="560" fill="url(#g)"/>
<g fill="none" stroke="#4E6C9B" stroke-width="1.2" opacity=".7">
<path d="M28 28h26M28 28v26M872 28h-26M872 28v26M28 532h26M28 532v-26M872 532h-26M872 532v-26"/></g>

<g fill="none" stroke="#7AA6FF" stroke-width="1.2">
<rect x="370" y="240" width="160" height="110"/><path d="M370 274h160M402 240v-34M470 240v-34M402 350v34M470 350v34"/>
<path d="M530 296h120M250 296H370M450 206v-70M450 384v70"/>
<circle cx="690" cy="296" r="34"/><circle cx="210" cy="296" r="34"/><circle cx="450" cy="102" r="34"/><circle cx="450" cy="488" r="34"/>
<path d="M690 262l-26 40 26 28M204 282l14 14-14 14M438 96l24 12-24 12M438 482l24 12-24 12"/></g>
<g fill="none" stroke="#6FA3FF" stroke-width="1.4"><rect x="386" y="256" width="128" height="78"/></g>
<g fill="#4E6C9B" font-family="IBM Plex Mono, monospace" font-size="11" letter-spacing="1.6">
<text x="376" y="232">CONTROLLER</text><text x="656" y="360">ACTUATOR</text><text x="176" y="360">SENSOR</text>
<text x="416" y="70">CLOUD</text><text x="410" y="546">DISPLAY</text></g>
<g fill="#C9A227"><circle cx="450" cy="296" r="6"/></g>
<text x="46" y="518" fill="#4E6C9B" font-family="IBM Plex Mono, monospace" font-size="12" letter-spacing="2.4">IoT / CONNECTED SENSOR NETWORK</text>
<text x="854" y="518" fill="#4E6C9B" font-family="IBM Plex Mono, monospace" font-size="12" letter-spacing="2.4" text-anchor="end">PIXIU TECH</text>
</svg>